<?xml version="1.0" encoding="UTF-8"?>
<svg version="1.1" xmlns="http://www.w3.org/2000/svg" width="964" height="290">
<path d="M0 0 C0.63534668 0.21962402 1.27069336 0.43924805 1.92529297 0.66552734 C26.64894285 9.29346443 45.93172244 27.24464915 57.75390625 50.44140625 C68.66438931 74.47728247 70.14370761 101.10323119 61.8125 126.125 C57.30854147 137.85686803 51.49459798 148.67521443 43 158 C42.12730469 158.96550781 41.25460937 159.93101562 40.35546875 160.92578125 C24.22120545 178.19261197 1.56436228 189.79733638 -22.26757812 191.12646484 C-50.06970942 191.99736161 -76.12840631 185.07894147 -97 166 C-98.26070312 164.87851562 -98.26070312 164.87851562 -99.546875 163.734375 C-117.443677 146.94917561 -128.01640771 122.46151267 -129 98 C-129.03996094 97.24203125 -129.07992187 96.4840625 -129.12109375 95.703125 C-129.80024594 71.25364599 -121.18038804 47.26600978 -105 29 C-104.20916016 27.99646484 -104.20916016 27.99646484 -103.40234375 26.97265625 C-80.13305538 -1.8995566 -34.16915709 -12.33143882 0 0 Z " fill="#00622F" transform="translate(889,11)"/>
<path d="M0 0 C110.96348315 0 110.96348315 0 137 26 C137.74378906 26.7321875 138.48757813 27.464375 139.25390625 28.21875 C147.43878325 36.80406129 152.60684844 46.9982439 156.375 58.125 C156.6136377 58.82810303 156.85227539 59.53120605 157.09814453 60.25561523 C160.59152866 71.25990155 161.36379768 82.19535442 161.3125 93.6875 C161.30926727 94.67487152 161.30926727 94.67487152 161.30596924 95.68218994 C161.17278423 121.08049487 154.9999939 144.73337984 136.8125 163.3125 C101.8682159 196.7037048 41.290991 187 0 187 C0 125.29 0 63.58 0 0 Z M49 43 C49 76.33 49 109.66 49 144 C77.45521654 144.95364152 77.45521654 144.95364152 100.9296875 132.2578125 C111.55205607 121.27072741 113.38390324 106.32870802 113.37304688 91.75268555 C113.12317519 80.17781046 110.79449204 68.60394476 104 59 C103.57074219 58.37867188 103.14148438 57.75734375 102.69921875 57.1171875 C95.97343231 48.36419219 87.46557042 45.85424648 77 43 C67.76 43 58.52 43 49 43 Z " fill="#00622F" transform="translate(289,7)"/>
<path d="M0 0 C0.92941406 0.45246094 1.85882812 0.90492187 2.81640625 1.37109375 C24.11706443 12.30286408 39.42138516 30.84871064 48.90625 52.453125 C50 56 50 56 51 66 C34.5 66 18 66 1 66 C-1.64 61.38 -4.28 56.76 -7 52 C-15.59440652 42.01939888 -26.19061291 35.84183533 -39.3125 34.1875 C-52.41610665 33.36852458 -64.49699266 37.72078366 -74.875 45.6875 C-84.53035674 54.87842186 -90.68237067 68.0807904 -91.23828125 81.37109375 C-91.63680076 99.61102537 -88.16756755 114.09949494 -75.3828125 127.70703125 C-66.24732498 136.49806596 -54.69047645 141.10604855 -42 141 C-29.37043713 140.34615342 -17.77685234 134.88626116 -9.0871582 125.72705078 C-6.84725886 123.06845581 -6.84725886 123.06845581 -5.74365234 119.70874023 C-4.09211022 115.64633616 -2.68779679 112.51298371 1 110 C9.1690246 107.72623733 18.13264124 108.78924702 26.5 109.1875 C28.87223832 109.25274789 31.24464792 109.31205676 33.6171875 109.36523438 C39.41520801 109.50811601 45.20681179 109.72522712 51 110 C50.05305135 118.60135708 50.05305135 118.60135708 48.6171875 121.89453125 C48.20267334 122.854198 48.20267334 122.854198 47.77978516 123.83325195 C47.48120605 124.48640381 47.18262695 125.13955566 46.875 125.8125 C46.56224121 126.50754639 46.24948242 127.20259277 45.92724609 127.91870117 C34.4857751 152.73149528 15.03138249 169.42610745 -10.1015625 179.30419922 C-33.53446888 187.8926487 -62.07444221 186.12906591 -84.61572266 175.7043457 C-107.1408952 164.78261226 -125.9167355 146.90901483 -134.703125 123.09423828 C-143.57457752 97.50872278 -143.50781458 69.81456701 -132.08447266 45.01220703 C-127.84073593 36.5093018 -122.34837806 29.04768304 -116 22 C-115.30261719 21.22011719 -114.60523438 20.44023438 -113.88671875 19.63671875 C-85.66382172 -10.23724355 -36.68233409 -18.47583053 0 0 Z " fill="#00622F" transform="translate(704,16)"/>
<path d="M0 0 C15.84 0 31.68 0 48 0 C48 61.71 48 123.42 48 187 C31.83 187 15.66 187 -1 187 C-1 178.09 -1 169.18 -1 160 C-18.49 160 -35.98 160 -54 160 C-54.66 161.65 -55.32 163.3 -56 165 C-56.72871138 166.36047739 -57.48798703 167.70503924 -58.27734375 169.03125 C-58.70853516 169.75957031 -59.13972656 170.48789063 -59.58398438 171.23828125 C-60.03064453 171.98464844 -60.47730469 172.73101562 -60.9375 173.5 C-61.38029297 174.24636719 -61.82308594 174.99273437 -62.27929688 175.76171875 C-63.51551836 177.84358206 -64.75614041 179.9226926 -66 182 C-66.40346649 182.85554977 -66.80693298 183.71109955 -67.22262573 184.59257507 C-69 187 -69 187 -71.56266785 187.60127258 C-73.09822075 187.584618 -73.09822075 187.584618 -74.66479492 187.56762695 C-76.40626045 187.56706047 -76.40626045 187.56706047 -78.1829071 187.56648254 C-79.43610245 187.54067612 -80.68929779 187.51486969 -81.98046875 187.48828125 C-83.90515739 187.47766914 -83.90515739 187.47766914 -85.86872864 187.46684265 C-89.27717922 187.44776759 -92.6845614 187.39866571 -96.09259033 187.34332275 C-99.57134548 187.29213925 -103.05027359 187.26933074 -106.52929688 187.24414062 C-113.353303 187.19054505 -120.17660019 187.10522794 -127 187 C-125.55104461 183.24795399 -123.89827582 180.10149318 -121.65625 176.75390625 C-120.99230225 175.7592334 -120.32835449 174.76456055 -119.64428711 173.73974609 C-118.93667236 172.69125488 -118.22905762 171.64276367 -117.5 170.5625 C-116.77240479 169.47791504 -116.04480957 168.39333008 -115.29516602 167.27587891 C-110.83849122 160.65597644 -106.28992673 154.12340134 -101.609375 147.66015625 C-96.20478092 140.14211749 -91.07969484 132.42233681 -85.87841797 124.76318359 C-83.01068398 120.54469994 -80.1312803 116.33423865 -77.25 112.125 C-76.71656982 111.34552002 -76.18313965 110.56604004 -75.63354492 109.76293945 C-71.81764575 104.18910796 -67.992245 98.62185641 -64.16308594 93.05712891 C-60.59999432 87.87737787 -57.04864999 82.68965324 -53.5 77.5 C-47.23799601 68.34280941 -40.95492923 59.20024488 -34.66601562 50.06152344 C-29.26677182 42.21488518 -23.87664939 34.36214145 -18.5 26.5 C-16.33362283 23.33313519 -14.16690153 20.16650605 -12 17 C-11.46181641 16.21334961 -10.92363281 15.42669922 -10.36914062 14.61621094 C-8.83058454 12.36834489 -7.29052643 10.12151602 -5.75 7.875 C-5.28400391 7.19373047 -4.81800781 6.51246094 -4.33789062 5.81054688 C-1.11462645 1.11462645 -1.11462645 1.11462645 0 0 Z M-2 73 C-2.93103007 74.45460166 -3.80943528 75.94287255 -4.66796875 77.44140625 C-5.22532715 78.40747803 -5.78268555 79.3735498 -6.35693359 80.36889648 C-6.96102051 81.42278564 -7.56510742 82.4766748 -8.1875 83.5625 C-13.89424013 93.44757545 -19.74285146 103.2324735 -25.73120117 112.94946289 C-26.29170166 113.86203857 -26.85220215 114.77461426 -27.4296875 115.71484375 C-27.92710449 116.52042725 -28.42452148 117.32601074 -28.93701172 118.15600586 C-30.08323687 119.78965315 -30.08323687 119.78965315 -30 121 C-20.43 121 -10.86 121 -1 121 C-1 105.16 -1 89.32 -1 73 C-1.33 73 -1.66 73 -2 73 Z " fill="#00622F" transform="translate(230,7)"/>
<path d="M0 0 C34.32 0 68.64 0 104 0 C104 14.19 104 28.38 104 43 C84.86 43 65.72 43 46 43 C46 52.24 46 61.48 46 71 C64.48 71 82.96 71 102 71 C102 84.86 102 98.72 102 113 C83.52 113 65.04 113 46 113 C46 123.23 46 133.46 46 144 C65.14 144 84.28 144 104 144 C104 158.19 104 172.38 104 187 C69.68 187 35.36 187 0 187 C0 125.29 0 63.58 0 0 Z " fill="#00622F" transform="translate(456,7)"/>
<path d="M0 0 C39.93 0 79.86 0 121 0 C121 14.19 121 28.38 121 43 C108.79 43 96.58 43 84 43 C84 90.52 84 138.04 84 187 C68.16 187 52.32 187 36 187 C36 139.48 36 91.96 36 43 C24.12 43 12.24 43 0 43 C0 28.81 0 14.62 0 0 Z " fill="#00622F" transform="translate(13,7)"/>
<path d="M0 0 C6.85845753 0.44607854 12.04952203 2.4861392 18.1875 5.5 C19.11296631 5.94996338 20.03843262 6.39992676 20.99194336 6.86352539 C44.00998674 18.30524286 59.79196224 34.47344207 70 58 C70.65462032 59.33928879 71.31486264 60.67606306 72 62 C72.69222656 60.96552734 72.69222656 60.96552734 73.3984375 59.91015625 C88.82620881 37.68318928 115.33861514 25.62067491 141 19 C141.99 19 142.98 19 144 19 C147.15311593 31.20561004 145.77687894 46.16679461 142 58 C141.6596875 59.13566406 141.319375 60.27132812 140.96875 61.44140625 C133.4971937 84.43663527 116.34559924 102.09724145 95 113 C91.04189263 114.78272795 87.05125858 116.44127108 83 118 C83.32742188 118.98097656 83.65484375 119.96195312 83.9921875 120.97265625 C85.19137284 125.16980492 85.22816407 129.10064102 85.125 133.4375 C85.11597656 134.16904297 85.10695313 134.90058594 85.09765625 135.65429688 C85.07436153 137.43634298 85.0385019 139.21821759 85 141 C82.14839609 141.81434143 79.63373869 142.11881242 76.671875 142.09765625 C75.87265625 142.09443359 75.0734375 142.09121094 74.25 142.08789062 C73.425 142.07951172 72.6 142.07113281 71.75 142.0625 C70.90953125 142.05798828 70.0690625 142.05347656 69.203125 142.04882812 C67.13538599 142.03707961 65.06768376 142.01914522 63 142 C62.94392578 140.13794922 62.94392578 140.13794922 62.88671875 138.23828125 C62.8210405 136.59632489 62.7545938 134.95439913 62.6875 133.3125 C62.66494141 132.49587891 62.64238281 131.67925781 62.61914062 130.83789062 C62.4122867 126.19307966 62.19741425 122.63819565 59 119 C56.58501068 117.82340066 56.58501068 117.82340066 53.75 117.1875 C41.81382282 113.58930615 31.25235708 107.33041402 22 99 C20.97519531 98.11441406 20.97519531 98.11441406 19.9296875 97.2109375 C9.28376974 87.39999368 3.18657494 74.62381263 -1 61 C-1.3403125 59.90558594 -1.680625 58.81117187 -2.03125 57.68359375 C-6.5017615 40.48454255 -6.22251148 16.75894897 0 0 Z " fill="#FDFEFD" transform="translate(788,60)"/>
<path d="M0 0 C0.804375 0.495 1.60875 0.99 2.4375 1.5 C2.4375 0.84 2.4375 0.18 2.4375 -0.5 C4.0875 -0.5 5.7375 -0.5 7.4375 -0.5 C7.52522579 3.83320395 7.57813579 8.16617668 7.625 12.5 C7.65013672 13.72074219 7.67527344 14.94148438 7.70117188 16.19921875 C7.76452071 24.01224116 7.80997802 30.83845244 2.25 36.875 C-2.60308775 39.67900625 -7.08732343 41.04936387 -12.6875 40 C-16.89821456 38.71847818 -20.20154626 36.23817675 -22.5625 32.5 C-22.5625 31.18 -22.5625 29.86 -22.5625 28.5 C-20.9125 28.83 -19.2625 29.16 -17.5625 29.5 C-17.2325 30.49 -16.9025 31.48 -16.5625 32.5 C-12.59765303 34.71564978 -9.03918425 34.97964474 -4.5625 34.5 C-1.59320851 32.84294424 -1.59320851 32.84294424 0.4375 30.5 C0.4375 29.51 0.4375 28.52 0.4375 27.5 C-0.2225 27.83 -0.8825 28.16 -1.5625 28.5 C-6.67214136 30.20321379 -10.83875324 30.12983055 -15.8125 28.3125 C-19.3802811 25.96100791 -21.65471079 23.31557843 -23.5625 19.5 C-24.09190021 14.18864048 -24.22613629 9.82727259 -21.8125 5 C-15.74111944 -1.74597839 -8.46205443 -3.56297028 0 0 Z M-16.8125 6.125 C-19.2519466 9.43567753 -19.77395462 12.41729919 -19.5625 16.5 C-17.99433358 20.21407837 -16.03291075 22.45858191 -12.5625 24.5 C-9.05419438 25.82746699 -7.58464233 25.50687176 -3.9375 24.375 C-0.2794259 22.34273661 0.94469296 21.36373586 2.4375 17.5 C2.98230203 13.21941266 2.71763798 11.04990047 0.75 7.1875 C-1.66281413 4.38341872 -3.02380671 3.40735725 -6.5625 2.5 C-10.76468985 2.5 -13.41981087 3.67472452 -16.8125 6.125 Z " fill="#000000" transform="translate(92.5625,242.5)"/>
<path d="M0 0 C0.804375 0.495 1.60875 0.99 2.4375 1.5 C2.4375 0.84 2.4375 0.18 2.4375 -0.5 C4.0875 -0.5 5.7375 -0.5 7.4375 -0.5 C7.55440073 3.99977884 7.62498837 8.49916287 7.6875 13 C7.73777344 14.90265625 7.73777344 14.90265625 7.7890625 16.84375 C7.86600269 24.23000793 7.57788891 29.28941664 3.4375 35.5 C-0.37320202 38.73081258 -3.54354742 40.40158917 -8.5625 40.5 C-13.40506337 39.60704505 -17.32221299 38.26254998 -20.625 34.5 C-22.5625 31.5 -22.5625 31.5 -22.5625 28.5 C-20.9125 28.83 -19.2625 29.16 -17.5625 29.5 C-17.2325 30.49 -16.9025 31.48 -16.5625 32.5 C-12.59765303 34.71564978 -9.03918425 34.97964474 -4.5625 34.5 C-1.08260111 32.33472958 0.93505564 30.32440382 2.4375 26.5 C1.4475 26.995 0.4575 27.49 -0.5625 28 C-5.84769303 30.2422031 -10.33669106 30.31327634 -15.8125 28.3125 C-19.3802811 25.96100791 -21.65471079 23.31557843 -23.5625 19.5 C-24.09190021 14.18864048 -24.22613629 9.82727259 -21.8125 5 C-15.74111944 -1.74597839 -8.46205443 -3.56297028 0 0 Z M-17.375 6.6875 C-19.35249163 9.70577669 -19.67985461 12.97245845 -19.5625 16.5 C-17.99433358 20.21407837 -16.03291075 22.45858191 -12.5625 24.5 C-9.02370182 25.83900472 -7.60196602 25.51292852 -3.9375 24.3125 C0.15565719 22.21490786 0.15565719 22.21490786 2.4375 18.5 C3.12217695 13.93833979 3.0731888 10.60656939 0.75 6.5625 C-5.62934599 0.87281304 -10.64304463 2.27690855 -17.375 6.6875 Z " fill="#000000" transform="translate(262.5625,242.5)"/>
<path d="M0 0 C21.67241379 0 21.67241379 0 26.5078125 4.359375 C31.95052721 10.39301302 32.40056143 16.09313632 32.2421875 23.90625 C31.79126765 29.66638742 29.6565197 32.568996 25.5 36.3125 C17.6952139 42.83360418 11.9247583 40 0 40 C0 26.8 0 13.6 0 0 Z M5 4 C5 14.56 5 25.12 5 36 C15.46888265 36.33419254 15.46888265 36.33419254 24 32 C27.51762932 28.02848302 28.13807922 23.17797066 28 18 C27.15537439 13.71654154 25.75656238 10.79859362 22.75 7.625 C16.67401582 4.03464571 12.1573476 4 5 4 Z " fill="#000000" transform="translate(516,231)"/>
<path d="M0 0 C1.051875 0.556875 2.10375 1.11375 3.1875 1.6875 C4.115625 2.120625 5.04375 2.55375 6 3 C7.69036558 2.04060332 9.35394174 1.03357147 11 0 C14.82868716 -0.70453537 18.39330904 -0.87182192 21.87890625 1.01953125 C24.55265213 3.15208519 25.91286894 4.73860681 27 8 C27.08178114 9.70016844 27.10749501 11.40336297 27.09765625 13.10546875 C27.09443359 14.08837891 27.09121094 15.07128906 27.08789062 16.08398438 C27.07532227 17.62022461 27.07532227 17.62022461 27.0625 19.1875 C27.05798828 20.22326172 27.05347656 21.25902344 27.04882812 22.32617188 C27.0370401 24.88417266 27.02058515 27.44205733 27 30 C25.68 30 24.36 30 23 30 C22.93941406 28.68644531 22.87882813 27.37289063 22.81640625 26.01953125 C22.73196744 24.28384459 22.64732112 22.54816802 22.5625 20.8125 C22.52318359 19.94818359 22.48386719 19.08386719 22.44335938 18.19335938 C22.23652984 14.04085878 21.99896469 10.05462138 21 6 C16.2750297 5.00866636 16.2750297 5.00866636 11.625 5.8125 C9.84911756 6.91985727 9.84911756 6.91985727 9 9 C8.84824451 10.59262066 8.75099675 12.19064856 8.68359375 13.7890625 C8.64169922 14.73007813 8.59980469 15.67109375 8.55664062 16.640625 C8.51732422 17.62546875 8.47800781 18.6103125 8.4375 19.625 C8.39431641 20.61757813 8.35113281 21.61015625 8.30664062 22.6328125 C8.20038931 25.08839838 8.09835036 27.54408703 8 30 C6.68 30 5.36 30 4 30 C3.95101562 28.75863281 3.90203125 27.51726562 3.8515625 26.23828125 C3.77650201 24.59633306 3.70095561 22.95440703 3.625 21.3125 C3.5940625 20.49587891 3.563125 19.67925781 3.53125 18.83789062 C3.24168584 12.68487444 3.24168584 12.68487444 1 7 C-2.14409648 5.42795176 -3.91388976 4.64774803 -7.3125 5.75 C-9.14294055 6.90877315 -9.14294055 6.90877315 -10 9 C-10.15175549 10.59262066 -10.24900325 12.19064856 -10.31640625 13.7890625 C-10.35830078 14.73007813 -10.40019531 15.67109375 -10.44335938 16.640625 C-10.50233398 18.11789062 -10.50233398 18.11789062 -10.5625 19.625 C-10.60568359 20.61757813 -10.64886719 21.61015625 -10.69335938 22.6328125 C-10.79961069 25.08839838 -10.90164964 27.54408703 -11 30 C-12.65 30 -14.3 30 -16 30 C-16 20.43 -16 10.86 -16 1 C-14.02 1 -12.04 1 -10 1 C-6.81791315 -0.59104343 -3.4646251 -0.40798389 0 0 Z " fill="#000000" transform="translate(740,241)"/>
<path d="M0 0 C1.67334039 0.98879205 3.34151823 1.98648336 5 3 C7.21734114 2.3498008 7.21734114 2.3498008 9 1 C12.48697902 -0.74348951 16.19590063 -0.58082725 20 0 C23.57623788 1.9137306 25.69762236 4.09286708 27 8 C27.08178114 9.70016844 27.10749501 11.40336297 27.09765625 13.10546875 C27.09443359 14.08837891 27.09121094 15.07128906 27.08789062 16.08398438 C27.07532227 17.62022461 27.07532227 17.62022461 27.0625 19.1875 C27.05798828 20.22326172 27.05347656 21.25902344 27.04882812 22.32617188 C27.0370401 24.88417266 27.02058515 27.44205733 27 30 C25.68 30 24.36 30 23 30 C22.93941406 28.68644531 22.87882812 27.37289063 22.81640625 26.01953125 C22.73196744 24.28384459 22.64732112 22.54816802 22.5625 20.8125 C22.52318359 19.94818359 22.48386719 19.08386719 22.44335938 18.19335938 C22.23652984 14.04085878 21.99896469 10.05462138 21 6 C16.2750297 5.00866636 16.2750297 5.00866636 11.625 5.8125 C9.84911756 6.91985727 9.84911756 6.91985727 9 9 C8.84824451 10.59262066 8.75099675 12.19064856 8.68359375 13.7890625 C8.64169922 14.73007813 8.59980469 15.67109375 8.55664062 16.640625 C8.51732422 17.62546875 8.47800781 18.6103125 8.4375 19.625 C8.39431641 20.61757813 8.35113281 21.61015625 8.30664062 22.6328125 C8.20038931 25.08839838 8.09835036 27.54408703 8 30 C6.68 30 5.36 30 4 30 C3.96261719 28.68644531 3.92523438 27.37289063 3.88671875 26.01953125 C3.82104343 24.28382636 3.75459663 22.54815053 3.6875 20.8125 C3.66494141 19.94818359 3.64238281 19.08386719 3.61914062 18.19335938 C3.41687368 13.39411629 3.18625893 9.85135181 0 6 C-2.90427811 4.88296996 -4.32054957 4.7546429 -7.25 5.8125 C-9.15074924 6.89399368 -9.15074924 6.89399368 -10 9 C-10.15175549 10.59262066 -10.24900325 12.19064856 -10.31640625 13.7890625 C-10.35830078 14.73007813 -10.40019531 15.67109375 -10.44335938 16.640625 C-10.50233398 18.11789062 -10.50233398 18.11789062 -10.5625 19.625 C-10.60568359 20.61757813 -10.64886719 21.61015625 -10.69335938 22.6328125 C-10.79961069 25.08839838 -10.90164964 27.54408703 -11 30 C-12.65 30 -14.3 30 -16 30 C-16 20.43 -16 10.86 -16 1 C-14.02 1 -12.04 1 -10 1 C-6.82220397 -0.58889801 -3.46051607 -0.41339498 0 0 Z " fill="#000000" transform="translate(156,241)"/>
<path d="M0 0 C3.51520834 2.3707219 5.79390381 5.02530762 7.6875 8.8125 C8.20598559 14.01435538 8.30768013 18.44810371 6.125 23.25 C2.1776568 27.39977106 -1.52449182 29.99271188 -7.375 30.25 C-11.37667382 29.80536958 -13.88435767 28.8693854 -17.3125 26.8125 C-17.6425 31.1025 -17.9725 35.3925 -18.3125 39.8125 C-19.9625 39.8125 -21.6125 39.8125 -23.3125 39.8125 C-23.3125 26.6125 -23.3125 13.4125 -23.3125 -0.1875 C-21.6625 -0.1875 -20.0125 -0.1875 -18.3125 -0.1875 C-18.3125 0.4725 -18.3125 1.1325 -18.3125 1.8125 C-17.508125 1.3175 -16.70375 0.8225 -15.875 0.3125 C-10.33143172 -2.02163401 -5.65415756 -2.02696214 0 0 Z M-15.3125 5.8125 C-17.75590191 8.74458229 -18.27909534 10.50072321 -18.6875 14.3125 C-18.27590947 18.15401162 -17.82669926 19.89278473 -15.3125 22.8125 C-11.34740684 25.17630554 -9.22646471 25.93642742 -4.625 25.3125 C-0.84225953 23.59956092 0.61709318 22.39589643 2.6875 18.8125 C3.73916089 14.88629933 4.13337359 12.7934219 2.4375 9.0625 C1.86 8.32 1.2825 7.5775 0.6875 6.8125 C0.275 6.235 -0.1375 5.6575 -0.5625 5.0625 C-5.55399884 1.49714369 -10.54920302 2.56479751 -15.3125 5.8125 Z " fill="#000000" transform="translate(711.3125,242.1875)"/>
<path d="M0 0 C3.86187029 2.52368733 5.87875875 6.13481955 7.1875 10.5 C7.1875 12.15 7.1875 13.8 7.1875 15.5 C-1.3925 15.5 -9.9725 15.5 -18.8125 15.5 C-16.48024881 21.48290954 -16.48024881 21.48290954 -12.5625 23.5 C-8.10059597 24.68984108 -6.00856424 24.35595149 -1.8125 22.5 C-0.80008315 21.17607028 0.20189389 19.84400833 1.1875 18.5 C3.875 18.25 3.875 18.25 6.1875 18.5 C5.26612913 22.55403182 4.57298724 24.19653132 1.25 26.8125 C-3.41799673 29.38466146 -7.52903235 30.20769383 -12.8125 29.5 C-17.08552817 27.86694171 -20.48854671 25.50236399 -22.8125 21.5 C-24.5479912 16.2935264 -24.47594383 11.35065911 -22.625 6.1875 C-17.44534581 -1.49267691 -8.45131146 -4.14351555 0 0 Z M-15.8125 5.5 C-18.28122947 8.11656956 -18.28122947 8.11656956 -18.8125 11.5 C-11.8825 11.5 -4.9525 11.5 2.1875 11.5 C0.26967269 6.29636963 0.26967269 6.29636963 -3.8125 3.5 C-8.80835695 1.9795218 -11.4538502 2.69109235 -15.8125 5.5 Z " fill="#000000" transform="translate(631.8125,242.5)"/>
<path d="M0 0 C5.08601959 2.86734931 7.14018274 5.53556146 8.73828125 11.12890625 C8.73828125 12.77890625 8.73828125 14.42890625 8.73828125 16.12890625 C0.15828125 16.12890625 -8.42171875 16.12890625 -17.26171875 16.12890625 C-14.92946756 22.11181579 -14.92946756 22.11181579 -11.01171875 24.12890625 C-6.54981472 25.31874733 -4.45778299 24.98485774 -0.26171875 23.12890625 C0.7506981 21.80497653 1.75267514 20.47291458 2.73828125 19.12890625 C5.42578125 18.87890625 5.42578125 18.87890625 7.73828125 19.12890625 C6.11619026 23.99517921 4.00500892 26.8696131 -0.51171875 29.37890625 C-5.57557755 30.75995865 -9.64938667 30.71802759 -14.51171875 28.94140625 C-18.07949985 26.58991416 -20.35392954 23.94448468 -22.26171875 20.12890625 C-22.79111896 14.81754673 -22.92535504 10.45617884 -20.51171875 5.62890625 C-14.96992373 -0.52864377 -8.0382627 -3.09591119 0 0 Z M-16.13671875 7.62890625 C-17.56171875 9.21640625 -17.56171875 9.21640625 -17.26171875 12.12890625 C-10.33171875 12.12890625 -3.40171875 12.12890625 3.73828125 12.12890625 C1.82045394 6.92527588 1.82045394 6.92527588 -2.26171875 4.12890625 C-8.0487758 2.36762802 -11.52400573 3.93873583 -16.13671875 7.62890625 Z " fill="#000000" transform="translate(573.26171875,241.87109375)"/>
<path d="M0 0 C5.35755096 1.92063148 8.45837216 4.91674432 11 10 C11 12.31 11 14.62 11 17 C2.42 17 -6.16 17 -15 17 C-10.75966598 23.57883288 -10.75966598 23.57883288 -4 26 C-0.45411852 24.93623556 2.03904087 23.99791909 4.625 21.3125 C6 20 6 20 8.6875 19.8125 C9.8321875 19.9053125 9.8321875 19.9053125 11 20 C9.02851185 24.56555151 7.13577327 27.20835304 3 30 C-1.98079383 31.66026461 -6.30273629 31.59903425 -11.1875 29.875 C-15.26464407 27.15690396 -18.23079194 24.59076824 -19.63671875 19.85546875 C-20.48650371 14.49177226 -19.8335621 10.75307192 -17 6 C-11.66308105 0.52114172 -7.44150235 -0.69018993 0 0 Z M-13 8 C-13.66 9.65 -14.32 11.3 -15 13 C-7.74 13 -0.48 13 7 13 C3.63514653 6.78711087 3.63514653 6.78711087 -2.25 4.0625 C-7.26042539 3.97899291 -8.99636102 5.01689645 -13 8 Z " fill="#000000" transform="translate(791,241)"/>
<path d="M0 0 C0.804375 0.495 1.60875 0.99 2.4375 1.5 C2.4375 0.84 2.4375 0.18 2.4375 -0.5 C4.0875 -0.5 5.7375 -0.5 7.4375 -0.5 C7.4375 9.07 7.4375 18.64 7.4375 28.5 C5.7875 28.5 4.1375 28.5 2.4375 28.5 C2.4375 27.84 2.4375 27.18 2.4375 26.5 C1.4475 26.995 0.4575 27.49 -0.5625 28 C-5.26231042 29.98036367 -9.67482697 30.62394459 -14.51953125 28.73828125 C-19.32964467 26.17626294 -21.86009819 23.60720543 -23.5625 18.5 C-24.12680864 12.80265311 -23.84836378 8.37214284 -20.5625 3.5 C-14.47805891 -2.12810801 -7.62374109 -3.20999625 0 0 Z M-15.5625 5.5 C-18.57329118 8.51079118 -19.3931202 11.26550511 -19.5625 15.5 C-18.02358362 19.63077554 -16.44504275 22.33034376 -12.5625 24.5 C-9.02370182 25.83900472 -7.60196602 25.51292852 -3.9375 24.3125 C0.15565719 22.21490786 0.15565719 22.21490786 2.4375 18.5 C3.12217695 13.93833979 3.0731888 10.60656939 0.75 6.5625 C-4.87282334 1.54754945 -9.2391987 1.81140758 -15.5625 5.5 Z " fill="#000000" transform="translate(473.5625,242.5)"/>
<path d="M0 0 C3.86798537 2.80428939 6.96412661 5.20487984 8.5 9.8125 C5.75 10.0625 5.75 10.0625 2.5 9.8125 C0.375 7.9375 0.375 7.9375 -1.5 5.8125 C-5.71365241 3.26283771 -9.69502601 3.22045856 -14.5 3.8125 C-17.37146994 5.18247157 -17.37146994 5.18247157 -19.5 6.8125 C-20.16 6.8125 -20.82 6.8125 -21.5 6.8125 C-24.61771189 12.84007632 -25.19392573 18.07563772 -24.5 24.8125 C-22.33743986 29.29780992 -20.03651301 31.76026792 -15.5 33.8125 C-10.02292249 35.55520648 -5.55151185 34.21245199 -0.5 31.8125 C0.85197858 30.49807638 2.19026002 29.1690164 3.5 27.8125 C6.25 27.5625 6.25 27.5625 8.5 27.8125 C7.34349173 32.72766014 4.44144386 34.72261365 0.5703125 37.578125 C-4.03975927 40.32677156 -9.27021274 40.52120949 -14.5 39.8125 C-21.57386828 37.47203616 -25.85387869 34.28142491 -29.5 27.8125 C-31.36273979 21.87350495 -31.51169602 15.2829356 -28.9375 9.5625 C-22.80952428 -1.22711439 -11.49414039 -3.89979763 0 0 Z " fill="#000000" transform="translate(903.5,232.1875)"/>
<path d="M0 0 C0.804375 0.495 1.60875 0.99 2.4375 1.5 C2.4375 0.84 2.4375 0.18 2.4375 -0.5 C4.0875 -0.5 5.7375 -0.5 7.4375 -0.5 C7.4375 9.07 7.4375 18.64 7.4375 28.5 C5.7875 28.5 4.1375 28.5 2.4375 28.5 C2.4375 27.84 2.4375 27.18 2.4375 26.5 C1.426875 26.995 0.41625 27.49 -0.625 28 C-5.10885388 29.88177803 -8.90331503 30.33974262 -13.640625 28.84375 C-18.02536659 26.9599351 -20.84709761 24.8297334 -22.94140625 20.4921875 C-24.49998251 15.49298062 -24.1239151 11.06605265 -22.375 6.1875 C-16.99878996 -1.78412178 -8.65796076 -3.64545716 0 0 Z M-15.5625 5.5 C-18.57329118 8.51079118 -19.3931202 11.26550511 -19.5625 15.5 C-18.02358362 19.63077554 -16.44504275 22.33034376 -12.5625 24.5 C-9.02370182 25.83900472 -7.60196602 25.51292852 -3.9375 24.3125 C0.15565719 22.21490786 0.15565719 22.21490786 2.4375 18.5 C3.12217695 13.93833979 3.0731888 10.60656939 0.75 6.5625 C-4.87282334 1.54754945 -9.2391987 1.81140758 -15.5625 5.5 Z " fill="#000000" transform="translate(56.5625,242.5)"/>
<path d="M0 0 C1.65 0 3.3 0 5 0 C6.62189027 3.60519054 8.2390474 7.21246667 9.85229492 10.8215332 C10.66415 12.63533278 11.47948497 14.44757352 12.29492188 16.25976562 C15.79149962 24.0895256 19.00710452 31.96502689 22 40 C20.35 40 18.7 40 17 40 C15.02 36.04 13.04 32.08 11 28 C5.39 27.67 -0.22 27.34 -6 27 C-6.45375 28.4025 -6.9075 29.805 -7.375 31.25 C-8.36783204 34.31875358 -9.49439503 37.14589666 -11 40 C-12.65 40 -14.3 40 -16 40 C-13.34134037 31.40974595 -9.81853628 23.20570562 -6.3125 14.9375 C-5.69956186 13.48515596 -5.08692914 12.03268298 -4.47460938 10.58007812 C-2.98659023 7.05188891 -1.49444799 3.52547065 0 0 Z M2 8 C0.02 12.95 -1.96 17.9 -4 23 C0.29 23 4.58 23 9 23 C7.32819664 17.74576086 5.62305301 12.87138415 3 8 C2.67 8 2.34 8 2 8 Z " fill="#000000" transform="translate(218,231)"/>
<path d="M0 0 C4.3510757 2.21658574 7.44162365 4.8307941 10 9 C11.25896711 14.57542579 11.37573363 18.65459932 9 24 C4.86130501 28.51493999 1.42506981 30.84097903 -4.8125 31.25 C-8.87306094 31.18294487 -11.56188674 30.2660292 -15 28 C-19.71708471 22.77296019 -20.29585013 19.58985553 -20.21484375 12.6953125 C-19.83416849 7.91956832 -17.95899374 5.86309436 -14.5 2.75 C-9.93397294 -0.44621894 -5.40528385 -0.66640486 0 0 Z M-13 7 C-15.79611547 10.06670728 -16.23639043 12.47376782 -16.0625 16.5 C-15.55010399 19.87843525 -14.81512832 21.71988594 -12.25 24 C-8.37390371 26.45064874 -8.37390371 26.45064874 -4 27 C-0.15450547 25.80657066 2.29254576 24.82155976 4.9375 21.75 C6.66428947 17.28066254 6.69194295 13.69141609 4.875 9.25 C2.52835526 6.43402631 0.40267243 5.31940359 -3 4 C-7.43338303 4 -9.27033452 4.69871705 -13 7 Z " fill="#000000" transform="translate(934,241)"/>
<path d="M0 0 C3.37530399 2.25020266 6.11688355 4.15044078 7.8125 7.875 C8.73999792 14.33248549 8.68904307 19.46088576 4.8125 24.875 C0.28276213 28.95176408 -2.97956247 30.1840156 -9.12890625 30.09375 C-14.24425515 29.55018351 -17.95665757 26.70414659 -21.1875 22.875 C-22.83616896 17.92899313 -22.89281168 13.02510603 -22.1875 7.875 C-20.19523123 3.98405899 -17.51099598 1.67606336 -13.8125 -0.5625 C-8.79317519 -1.6380696 -4.79637819 -1.69283936 0 0 Z M-16.1875 6.875 C-18.16356631 9.36656187 -18.21079509 11.054705 -18.625 14.25 C-18.05600248 18.96455087 -16.66894451 20.68984864 -13.1875 23.875 C-9.14020747 25.71467842 -7.24089782 26.22613261 -3 24.8125 C0.07184642 22.69633913 1.9111141 21.09272999 3.8125 17.875 C4.28719444 14.07744451 4.13646185 11.66690675 2.6875 8.125 C0.34085526 5.30902631 -1.78482757 4.19440359 -5.1875 2.875 C-9.97702854 2.875 -12.38956924 4.11025947 -16.1875 6.875 Z " fill="#000000" transform="translate(675.1875,242.125)"/>
<path d="M0 0 C1.65 0 3.3 0 5 0 C5.01458252 0.58491211 5.02916504 1.16982422 5.04418945 1.77246094 C5.1188357 4.43229397 5.21543899 7.09089448 5.3125 9.75 C5.33505859 10.67039063 5.35761719 11.59078125 5.38085938 12.5390625 C5.41630859 13.42851562 5.45175781 14.31796875 5.48828125 15.234375 C5.51446533 16.05131836 5.54064941 16.86826172 5.56762695 17.70996094 C6.09523263 20.50439419 7.0945496 21.91438635 9 24 C12.57842768 25.49101153 14.0333801 24.98831697 17.75 23.6875 C21.05780179 22.37416123 21.05780179 22.37416123 22 20 C22.15123831 18.4804236 22.24881693 16.95527498 22.31640625 15.4296875 C22.35830078 14.53378906 22.40019531 13.63789063 22.44335938 12.71484375 C22.48267578 11.77769531 22.52199219 10.84054688 22.5625 9.875 C22.60568359 8.93011719 22.64886719 7.98523438 22.69335938 7.01171875 C22.79959072 4.67462908 22.90163176 2.3374317 23 0 C24.65 0 26.3 0 28 0 C28 9.57 28 19.14 28 29 C25.69 29 23.38 29 21 29 C20.01 29.33 19.02 29.66 18 30 C12.37608914 30.36878104 8.86487365 30.1678247 4 27 C0.43676976 23.19102974 -0.13202039 19.53901809 -0.09765625 14.453125 C-0.09443359 13.60878906 -0.09121094 12.76445312 -0.08789062 11.89453125 C-0.07951172 11.02183594 -0.07113281 10.14914063 -0.0625 9.25 C-0.05798828 8.36183594 -0.05347656 7.47367188 -0.04882812 6.55859375 C-0.037074 4.37232671 -0.02064249 2.18619821 0 0 Z " fill="#000000" transform="translate(106,242)"/>
<path d="M0 0 C3.72320483 2.21489922 6.10532516 3.88039873 7.703125 8.0234375 C7.703125 9.0134375 7.703125 10.0034375 7.703125 11.0234375 C4.06879546 10.71192354 2.86969451 10.19427803 0.265625 7.5234375 C-2.74641286 4.58486398 -4.12216965 4.0234375 -8.296875 4.0234375 C-12.21499078 5.32947609 -13.88367624 6.42363285 -16.234375 9.8359375 C-17.47715681 13.56428292 -17.56144832 15.30875338 -16.296875 19.0234375 C-14.03210535 21.85439957 -12.27189606 23.61290232 -8.921875 25.0234375 C-5.12779216 25.0234375 -2.61513611 23.80546661 0.703125 22.0234375 C1.72113076 20.70380041 2.72560865 19.37334104 3.703125 18.0234375 C5.023125 18.0234375 6.343125 18.0234375 7.703125 18.0234375 C7.4031075 21.52364172 6.74578759 22.97247941 4.453125 25.7109375 C0.06952959 29.39714273 -3.43949766 30.49721497 -9.23828125 30.34375 C-13.7247087 29.64567211 -17.12981672 27.30720161 -20.171875 23.9609375 C-22.77673171 19.4747954 -22.77149167 15.0630036 -22.296875 10.0234375 C-20.60523442 5.30465062 -18.43638882 2.81760933 -14.296875 0.0234375 C-9.48574583 -1.58027222 -4.75627449 -2.02222555 0 0 Z " fill="#000000" transform="translate(326.296875,241.9765625)"/>
<path d="M0 0 C1.32 0 2.64 0 4 0 C4.01981934 0.55461914 4.03963867 1.10923828 4.06005859 1.68066406 C4.15557651 4.20423693 4.26514567 6.72701224 4.375 9.25 C4.4059375 10.12269531 4.436875 10.99539062 4.46875 11.89453125 C4.50742187 12.73886719 4.54609375 13.58320313 4.5859375 14.453125 C4.6173584 15.22817383 4.6487793 16.00322266 4.68115234 16.80175781 C5.04046619 19.27898745 5.63422556 20.90274336 7 23 C12.48607267 25.36654115 15.62484702 24.97454599 21 23 C22.14850697 18.26120232 22.32901557 13.53708638 22.5625 8.6875 C22.60568359 7.85154297 22.64886719 7.01558594 22.69335938 6.15429688 C22.79885307 4.10303065 22.89987315 2.0515352 23 0 C24.32 0 25.64 0 27 0 C27 9.57 27 19.14 27 29 C25.35 28.67 23.7 28.34 22 28 C20.8553125 28.4640625 20.8553125 28.4640625 19.6875 28.9375 C14.76757103 30.8825882 10.53960002 30.55193208 5.6875 28.8125 C2.47518734 26.64605658 1.54938963 25.56719939 0 22 C-0.36293271 18.22153782 -0.28209994 14.47877433 -0.1875 10.6875 C-0.17396484 9.66076172 -0.16042969 8.63402344 -0.14648438 7.57617188 C-0.11123883 5.05024091 -0.061967 2.5253934 0 0 Z " fill="#000000" transform="translate(339,242)"/>
<path d="M0 0 C1.32 0 2.64 0 4 0 C4.04898437 1.14597656 4.09796875 2.29195312 4.1484375 3.47265625 C4.22352801 5.00262535 4.29907306 6.53257218 4.375 8.0625 C4.4059375 8.81466797 4.436875 9.56683594 4.46875 10.34179688 C4.72058459 15.18961281 5.49168365 19.38308043 7 24 C11.96950912 24.99390182 15.38069565 25.25593933 20 23 C21.81385205 20.14467583 22.27830792 17.80173807 22.4140625 14.453125 C22.45273437 13.60878906 22.49140625 12.76445312 22.53125 11.89453125 C22.5621875 11.02183594 22.593125 10.14914063 22.625 9.25 C22.66367187 8.36183594 22.70234375 7.47367188 22.7421875 6.55859375 C22.83620873 4.3726002 22.92186143 2.18660938 23 0 C24.32 0 25.64 0 27 0 C27 9.57 27 19.14 27 29 C25.35 28.67 23.7 28.34 22 28 C21.1028125 28.4640625 21.1028125 28.4640625 20.1875 28.9375 C16.86328594 30.55211826 13.59069167 30.45661975 10 30 C6.38495966 28.56762553 3.43632544 27.07746372 1 24 C0.01956036 21.05868109 -0.11621202 19.17498335 -0.09765625 16.11328125 C-0.09443359 15.17548828 -0.09121094 14.23769531 -0.08789062 13.27148438 C-0.07532227 11.80678711 -0.07532227 11.80678711 -0.0625 10.3125 C-0.05798828 9.32443359 -0.05347656 8.33636719 -0.04882812 7.31835938 C-0.03704303 4.87884526 -0.02059011 2.43945311 0 0 Z " fill="#000000" transform="translate(401,242)"/>
<path d="M0 0 C2.40879165 2.06467856 2.96331553 2.88994659 4 6 C4.08143855 7.62719482 4.1075302 9.25751719 4.09765625 10.88671875 C4.09443359 11.82451172 4.09121094 12.76230469 4.08789062 13.72851562 C4.07951172 14.70498047 4.07113281 15.68144531 4.0625 16.6875 C4.05798828 17.67556641 4.05347656 18.66363281 4.04882812 19.68164062 C4.03704303 22.12115474 4.02059011 24.56054689 4 27 C2.68 27 1.36 27 0 27 C-0.07347656 25.26363281 -0.07347656 25.26363281 -0.1484375 23.4921875 C-0.22351478 21.9531033 -0.29906043 20.4140419 -0.375 18.875 C-0.4059375 18.11445313 -0.436875 17.35390625 -0.46875 16.5703125 C-0.70098734 12.08039065 -1.18335269 8.18086561 -3 4 C-5.96306637 2.10692982 -7.62096012 1.96967681 -11.125 2.25 C-14.16943208 2.87699766 -14.16943208 2.87699766 -17 5 C-17.90833969 7.72501908 -18.18359985 9.62233971 -18.31640625 12.44921875 C-18.35830078 13.29677734 -18.40019531 14.14433594 -18.44335938 15.01757812 C-18.48267578 15.89865234 -18.52199219 16.77972656 -18.5625 17.6875 C-18.60568359 18.58017578 -18.64886719 19.47285156 -18.69335938 20.39257812 C-18.79935353 22.59490108 -18.90142051 24.79733473 -19 27 C-20.32 27 -21.64 27 -23 27 C-23 17.43 -23 7.86 -23 -2 C-5.03249097 -3.99638989 -5.03249097 -3.99638989 0 0 Z " fill="#000000" transform="translate(830,244)"/>
<path d="M0 0 C1.65 0 3.3 0 5 0 C5.23710693 0.57032959 5.47421387 1.14065918 5.71850586 1.72827148 C6.78895634 4.29908382 7.86317581 6.8683042 8.9375 9.4375 C9.31068359 10.33533203 9.68386719 11.23316406 10.06835938 12.15820312 C10.42607422 13.01220703 10.78378906 13.86621094 11.15234375 14.74609375 C11.48226318 15.53685303 11.81218262 16.3276123 12.15209961 17.14233398 C12.85721491 18.97376797 12.85721491 18.97376797 14 20 C16.64 13.4 19.28 6.8 22 0 C23.98 0 25.96 0 28 0 C26.37783303 4.08446448 24.75177791 8.16737003 23.125 12.25 C22.66480469 13.40886719 22.20460938 14.56773437 21.73046875 15.76171875 C21.28574219 16.87675781 20.84101562 17.99179687 20.3828125 19.140625 C19.97434082 20.16704102 19.56586914 21.19345703 19.14501953 22.25097656 C18.18302408 24.56058611 17.15518408 26.78241771 16 29 C14.35 29 12.7 29 11 29 C9.42897511 25.19322741 7.8625157 21.38461236 6.30029297 17.57421875 C5.76802214 16.27780317 5.23449895 14.98190106 4.69970703 13.68652344 C3.93194036 11.82622051 3.16902341 9.96391837 2.40625 8.1015625 C1.94541016 6.98088379 1.48457031 5.86020508 1.00976562 4.70556641 C0 2 0 2 0 0 Z " fill="#000000" transform="translate(581,242)"/>
<path d="M0 0 C1.65 0 3.3 0 5 0 C5 3.63 5 7.26 5 11 C7.31 11 9.62 11 12 11 C12 12.32 12 13.64 12 15 C9.69 15 7.38 15 5 15 C5 23.25 5 31.5 5 40 C3.35 40 1.7 40 0 40 C0 31.75 0 23.5 0 15 C-1.65 15 -3.3 15 -5 15 C-5 13.68 -5 12.36 -5 11 C-3.35 11 -1.7 11 0 11 C0 7.37 0 3.74 0 0 Z " fill="#000000" transform="translate(386,231)"/>
<path d="M0 0 C8.25 0 16.5 0 25 0 C25 1.32 25 2.64 25 4 C21.7 4 18.4 4 15 4 C15 15.88 15 27.76 15 40 C13.68 40 12.36 40 11 40 C11 28.12 11 16.24 11 4 C7.37 4 3.74 4 0 4 C0 2.68 0 1.36 0 0 Z " fill="#000000" transform="translate(9,231)"/>
<path d="M0 0 C1.32 0 2.64 0 4 0 C4 3.63 4 7.26 4 11 C6.31 11 8.62 11 11 11 C11 12.32 11 13.64 11 15 C8.69 15 6.38 15 4 15 C4 23.25 4 31.5 4 40 C2.68 40 1.36 40 0 40 C0 31.75 0 23.5 0 15 C-1.98 15 -3.96 15 -6 15 C-6 13.68 -6 12.36 -6 11 C-4.02 11 -2.04 11 0 11 C0 7.37 0 3.74 0 0 Z " fill="#000000" transform="translate(843,231)"/>
<path d="M0 0 C1.65 0 3.3 0 5 0 C5 13.2 5 26.4 5 40 C3.35 40 1.7 40 0 40 C0 26.8 0 13.6 0 0 Z " fill="#000000" transform="translate(643,231)"/>
<path d="M0 0 C0 1.32 0 2.64 0 4 C-2.31 4.66 -4.62 5.32 -7 6 C-7.83371359 8.95508447 -8.17889534 11.70109613 -8.31640625 14.765625 C-8.35830078 15.65507812 -8.40019531 16.54453125 -8.44335938 17.4609375 C-8.48267578 18.38132812 -8.52199219 19.30171875 -8.5625 20.25 C-8.62727539 21.65378906 -8.62727539 21.65378906 -8.69335938 23.0859375 C-8.7991805 25.39048641 -8.90126557 27.69513839 -9 30 C-10.65 30 -12.3 30 -14 30 C-14 20.43 -14 10.86 -14 1 C-3.875 -0.125 -3.875 -0.125 0 0 Z " fill="#000000" transform="translate(290,241)"/>
<path d="M0 0 C0 1.32 0 2.64 0 4 C-1.7578125 4.61848958 -3.515625 5.23697917 -5.2734375 5.85546875 C-7.85180827 7.56466023 -8.18295982 9.01466089 -9 12 C-9.36236108 15.10032087 -9.50687126 18.1943935 -9.625 21.3125 C-9.66367187 22.14845703 -9.70234375 22.98441406 -9.7421875 23.84570312 C-9.83595159 25.89679259 -9.91904245 27.94836515 -10 30 C-11.32 30 -12.64 30 -14 30 C-14 20.43 -14 10.86 -14 1 C-12.02 1 -10.04 1 -8 1 C-5.29120665 -0.35439668 -2.99066732 -0.06501451 0 0 Z " fill="#000000" transform="translate(449,241)"/>
<path d="M0 0 C1.32 0 2.64 0 4 0 C4 13.2 4 26.4 4 40 C2.68 40 1.36 40 0 40 C0 26.8 0 13.6 0 0 Z " fill="#000000" transform="translate(488,231)"/>
<path d="M0 0 C1.32 0 2.64 0 4 0 C4 13.2 4 26.4 4 40 C2.68 40 1.36 40 0 40 C0 26.8 0 13.6 0 0 Z " fill="#000000" transform="translate(373,231)"/>
<path d="M0 0 C1.32 0 2.64 0 4 0 C4 9.57 4 19.14 4 29 C2.68 29 1.36 29 0 29 C0 19.43 0 9.86 0 0 Z " fill="#000000" transform="translate(295,242)"/>
<path d="M0 0 C1.32 0 2.64 0 4 0 C4 2.64 4 5.28 4 8 C2.68 8 1.36 8 0 8 C0 5.36 0 2.72 0 0 Z " fill="#000000" transform="translate(295,231)"/>
</svg>
